<svg id="Calque_1" data-name="Calque 1" xmlns="http://www.w3.org/2000/svg" viewBox="0 0 128 128"><defs><style>.cls-1{fill:#0049f5;}.cls-2{fill:#ddebf8;}</style></defs><title>icon</title><rect class="cls-1" width="128" height="128" rx="24.55"/><path class="cls-2" d="M54.93,30.86a3.67,3.67,0,0,1-3.75-3.76,3.56,3.56,0,0,1,1.07-2.59,3.66,3.66,0,0,1,2.68-1.07H73a3.66,3.66,0,0,1,3.75,3.75,3.52,3.52,0,0,1-1.07,2.59A3.63,3.63,0,0,1,73,30.86Zm9,41.81a3.49,3.49,0,0,0,2.59-1.12,3.7,3.7,0,0,0,1.07-2.64V55.6a3.67,3.67,0,1,0-7.33,0V68.91a3.7,3.7,0,0,0,1.07,2.64A3.5,3.5,0,0,0,64,72.67Zm0,31.89a33.15,33.15,0,0,1-13.41-2.73,35.56,35.56,0,0,1-10.94-7.37,34,34,0,0,1-7.37-10.9,34.84,34.84,0,0,1,0-26.8,34.59,34.59,0,0,1,7.37-10.94,35.15,35.15,0,0,1,10.94-7.41A33.15,33.15,0,0,1,64,35.68a33.64,33.64,0,0,1,11.65,2,30.56,30.56,0,0,1,9.7,5.67l2.86-2.77a3.7,3.7,0,0,1,2.59-1,3.56,3.56,0,0,1,2.59,1.07,3.67,3.67,0,0,1,1.16,2.64A3.63,3.63,0,0,1,93.35,46l-2.68,2.68a33.18,33.18,0,0,1,5.54,9,32.06,32.06,0,0,1,2.23,12.5,33.07,33.07,0,0,1-2.73,13.4,34.4,34.4,0,0,1-7.41,10.9,35.56,35.56,0,0,1-10.94,7.37A33.14,33.14,0,0,1,64,104.56Zm0-8.49A25.7,25.7,0,0,0,90,70.16a25.78,25.78,0,0,0-26-26,25.78,25.78,0,0,0-26,26A25.7,25.7,0,0,0,64,96.07Z" transform="translate(0 0)"/></svg>